<?xml version="1.0" encoding="UTF-8" standalone="no"?>
<!--
  SVG template from the Android system icon style guide reference square icon
  http://www.google.com/design/spec/style/icons.html#icons-product-icons

  This file contains additional metadata for use with Inkscape, such as layers
  and grids. This means that you can use the file directly with Inkscape, with
  all elements should be visible and controllable in the UI. Additioanl
  elements and attributes will anyways  be generated by Inkscape on the first
  save. -->

<svg
   xmlns:dc="http://purl.org/dc/elements/1.1/"
   xmlns:cc="http://creativecommons.org/ns#"
   xmlns:rdf="http://www.w3.org/1999/02/22-rdf-syntax-ns#"
   xmlns:svg="http://www.w3.org/2000/svg"
   xmlns="http://www.w3.org/2000/svg"
   xmlns:xlink="http://www.w3.org/1999/xlink"
   xmlns:sodipodi="http://sodipodi.sourceforge.net/DTD/sodipodi-0.dtd"
   xmlns:inkscape="http://www.inkscape.org/namespaces/inkscape"
   version="1.0"
   width="48"
   height="48"
   viewBox="0 0 48 48"
   id="svg4282"
   inkscape:version="0.91 r13725"
   sodipodi:docname="sicad-mobile-icon.svg"
   inkscape:export-filename="/home/android-devel/android-devel/sicad-mobile/artwork/sicad-mobile-icon-ldpi.png"
   inkscape:export-xdpi="135"
   inkscape:export-ydpi="135">
  <metadata
     id="metadata4344">
    <rdf:RDF>
      <cc:Work
         rdf:about="">
        <dc:format>image/svg+xml</dc:format>
        <dc:type
           rdf:resource="http://purl.org/dc/dcmitype/StillImage" />
        <dc:title />
      </cc:Work>
    </rdf:RDF>
  </metadata>
  <!--
    We use a 48x48 grid to match the 48x48dp measure in the style guide.
    The visible part of the icon will be smaller. -->
  <defs
     id="defs">
    <clipPath
       id="clipSilhouette">
      <!--
        This clip path is used to cut out any shadows and finishes outside
        of the 152x152px (38x38dp) square keyline shape. -->
      <rect
         width="38"
         height="38"
         x="5"
         y="5"
         rx="3"
         ry="3"
         id="clipSilhouetteBounds" />
    </clipPath>
    <linearGradient
       id="linearGradientWhiteMidpoint33">
      <!--
        Linear gradient that defines colors stops for the 33% midpoint.
        Edit the stop-color attributes to change the color of the gradient.
        Used for the radial gradient in the finish. -->
      <stop
         id="stopStart"
         style="stop-color:#ffffff;stop-opacity:1"
         offset="0" />
      <stop
         id="stopMidpoint"
         style="stop-color:#ffffff;stop-opacity:0.5"
         offset="0.34821984" />
      <stop
         id="stopEnd"
         style="stop-color:#ffffff;stop-opacity:0"
         offset="1" />
    </linearGradient>
    <radialGradient
       id="radialGradientFinish"
       xlink:href="#linearGradientWhiteMidpoint33"
       cx="1.5583263e-15"
       cy="-2.948434e-15"
       r="48"
       gradientUnits="userSpaceOnUse"
       gradientTransform="matrix(1.0654641,-0.69766765,0.45451603,0.69412751,4.9464729e-7,6.4282268e-7)"
       fx="1.5583263e-15"
       fy="-2.948434e-15">
      <!--
        The gradient used to fill the finishing layer of the icon with a
        45ยบ angle light. The color of the light is defined in
        #linearGradientWhiteMidpoint33 -->
    </radialGradient>
    <filter
       id="filterTint"
       inkscape:label="Tint"
       x="0"
       y="0"
       width="1"
       height="1">
      <!--
        Filter used to produce the lighter edge at the top of material
        elements.

        Edit the flood-color attribute in the feFlood element below to
        change the tint color.-->
      <feFlood
         flood-opacity="0.2"
         flood-color="#ffffff"
         result="floodTintColor"
         id="feFlood4293" />
      <feOffset
         in="SourceAlpha"
         dx="0"
         dy="1"
         result="offsetAlpha"
         id="feOffset4295">
        <!--
          The style guideline metrics specify the y offset to be 1dp, but
          looking at the example images, they seem to use 0.5dp or lower.
          -->
      </feOffset>
      <feComposite
         in="SourceAlpha"
         in2="offsetAlpha"
         operator="out"
         result="edgeAlpha"
         id="feComposite4297" />
      <feComposite
         in="floodTintColor"
         in2="edgeAlpha"
         operator="in"
         result="edgeColor"
         id="feComposite4299" />
      <feBlend
         in="edgeColor"
         in2="SourceGraphic"
         mode="normal"
         result="tint"
         id="feBlend4301" />
    </filter>
    <filter
       id="filterShade"
       inkscape:label="Shade"
       height="1"
       width="1"
       y="0"
       x="0">
      <!--
        Filter used to produce the darker edge at the bottom of material
        elements.

        Edit the flood-color attribute in the feFlood element below to
        change the shade color. -->
      <feFlood
         flood-color="#212121"
         flood-opacity="0.2"
         result="floodShadeColor"
         id="feFlood4304" />
      <feOffset
         in="SourceAlpha"
         dy="-1"
         dx="0"
         result="offsetAlpha"
         id="feOffset4306" />
      <feComposite
         in="SourceAlpha"
         in2="offsetAlpha"
         operator="out"
         result="edgeAlpha"
         id="feComposite4308" />
      <feComposite
         in="floodShadeColor"
         in2="edgeAlpha"
         operator="in"
         result="edgeColor"
         id="feComposite4310" />
      <feBlend
         in="edgeColor"
         in2="SourceGraphic"
         mode="normal"
         result="shade"
         id="feBlend4312" />
    </filter>
    <filter
       id="filterShadow"
       inkscape:label="Drop Shadow"
       width="2"
       height="2"
       x="-0.5"
       y="-0.5">
      <!--
        Filter used to produce the blurred shadow below material elements.

        Edit the flood-color attribute in the feFlood element below to
        change the shadow color. To edit the shadow size and offset, change
        the attributes in the feGaussianBlur and feOffset elements. -->
      <feFlood
         flood-opacity="0.2"
         flood-color="#212121"
         result="floodShadowColor"
         id="feFlood4315" />
      <feComposite
         in="floodShadowColor"
         in2="SourceAlpha"
         operator="in"
         result="shadow"
         id="feComposite4317" />
      <feGaussianBlur
         in="shadow"
         stdDeviation="1.5"
         result="bluredShadow"
         id="feGaussianBlur4319" />
      <feOffset
         in="bluredShadow"
         dx="0"
         dy="1.5"
         result="offsetShadow"
         id="feOffset4321" />
      <feComposite
         in="SourceGraphic"
         in2="offsetShadow"
         operator="over"
         result="dropShadow"
         id="feComposite4323" />
    </filter>
  </defs>
  <sodipodi:namedview
     showgrid="false"
     id="namedview4325"
     inkscape:zoom="3.4766083"
     inkscape:cx="-20.814201"
     inkscape:cy="-4.526127"
     inkscape:window-width="1600"
     inkscape:window-height="845"
     inkscape:window-x="0"
     inkscape:window-y="0"
     inkscape:window-maximized="1"
     inkscape:current-layer="materialBackground">
    <!--
      This defines the grids shown in Inkscape.
      These won't affect the result of the render. -->
    <inkscape:grid
       type="xygrid"
       id="gridMain"
       originx="3"
       originy="3"
       empspacing="7"
       dotted="false"
       enabled="true" />
    <inkscape:grid
       type="axonomgrid"
       id="gridDiagonal"
       units="px"
       empspacing="1"
       gridanglex="45"
       gridanglez="45"
       spacingy="48"
       enabled="true" />
  </sodipodi:namedview>
  <!--
    The following groups contain the actual visible parts of the image.
    The groups should be clipped with the silhouette path so that any shadows
    and finishes won't bleed over the edges.

    The order of the elements in this group defines how the elements overlap
    visually, with the first ones being rendered at the bottom. -->
  <g
     id="materialBackground"
     inkscape:groupmode="layer"
     inkscape:label="Material background"
     clip-path="url(#clipSilhouette)">
    <!--
      We need to use nested groups to apply multiple filters on a
      single element. -->
    <g
       style="filter:url(#filterShade);fill:#212121;fill-opacity:1"
       id="g4330">
      <rect
         style="fill:#212121;filter:url(#filterTint);fill-opacity:1"
         width="38"
         height="38"
         x="5"
         y="5"
         rx="3"
         ry="3"
         id="rect4332" />
    </g>
  </g>
  <g
     id="materialForeground"
     inkscape:groupmode="layer"
     inkscape:label="Material foreground"
     clip-path="url(#clipSilhouette)" />
  <g
     id="finish"
     inkscape:groupmode="layer"
     inkscape:label="Finish"
     clip-path="url(#clipSilhouette)">
    <g
       id="g4360">
      <path
         style="fill:#4caf50;fill-opacity:1;fill-rule:evenodd"
         d="m 15.289807,36.961568 c -0.344238,-0.09216 -0.704095,-0.406439 -0.843328,-0.73647 -0.100621,-0.238491 -0.135247,-0.846715 -0.135247,-2.375597 0,-3.1142 -0.03275,-3.081595 3.092502,-3.082128 2.03514,-2.46e-4 2.126326,0.0078 2.446436,0.221758 0.615689,0.411318 0.674952,0.663303 0.672711,2.86037 -0.0018,1.709094 -0.02549,2.008899 -0.187366,2.365425 -0.331848,0.730893 -0.449077,0.763785 -2.79035,0.78257 -1.132804,0.009 -2.147717,-0.007 -2.255358,-0.0361 z m 6.654308,0 c -0.344239,-0.09216 -0.704094,-0.406439 -0.843331,-0.73647 -0.100616,-0.238491 -0.135242,-0.846715 -0.135242,-2.375597 0,-3.112888 -0.03111,-3.081759 3.082509,-3.081759 1.913175,0 2.13229,0.01722 2.416653,0.19067 0.629403,0.383758 0.662534,0.514836 0.697346,2.758617 0.0287,1.850137 0.01435,2.068368 -0.162097,2.467302 -0.337614,0.76321 -0.444496,0.794257 -2.800482,0.813165 -1.132805,0.009 -2.147713,-0.007 -2.255356,-0.0361 z m -7.154241,-6.907002 c -0.452614,-0.414764 -0.519046,-0.768214 -0.519046,-2.761487 0,-1.993314 0.06643,-2.346723 0.519046,-2.761529 l 0.350273,-0.321009 2.20809,0 c 2.529899,0 2.677814,0.03569 2.986771,0.715964 0.162407,0.357716 0.186147,0.655675 0.188023,2.360135 0.0018,1.784927 -0.01534,1.986834 -0.203588,2.375719 -0.33144,0.684671 -0.450406,0.713217 -2.971206,0.713217 l -2.20809,0 -0.350273,-0.32101 z m 6.658343,0.0041 c -0.461861,-0.424238 -0.526937,-0.765631 -0.526937,-2.764482 0,-1.99881 0.06507,-2.340202 0.526937,-2.764441 l 0.346237,-0.318056 2.20809,0 c 2.520801,0 2.639764,0.02871 2.971209,0.713217 0.187914,0.388188 0.205733,0.593458 0.205733,2.36928 0,1.737352 -0.02058,1.986875 -0.193634,2.344304 -0.34261,0.70772 -0.465638,0.738234 -2.978803,0.738234 l -2.212595,0 -0.346237,-0.318056 z m 6.749115,0.03445 c -0.538586,-0.328391 -0.626694,-0.740982 -0.624267,-2.923284 0.0018,-1.684774 0.02582,-1.982856 0.188028,-2.340121 0.307685,-0.677699 0.46446,-0.716169 2.911943,-0.714529 2.34916,0 2.468438,0.02625 2.844667,0.584395 0.224931,0.333763 0.227599,0.368994 0.198651,2.623931 l -0.02936,2.285655 -0.365526,0.334789 -0.365529,0.33483 -2.227692,-2.46e-4 c -2.011689,-2.87e-4 -2.257099,-0.01845 -2.53093,-0.185297 z M 14.976519,23.627377 c -0.615579,-0.375351 -0.665287,-0.595017 -0.665287,-2.93969 0,-1.828564 0.02267,-2.145431 0.173287,-2.421039 0.348178,-0.637178 0.455044,-0.661458 2.909222,-0.661458 3.168806,0 3.069694,-0.09499 3.110477,2.980006 0.0314,2.36842 -0.01569,2.585337 -0.654048,3.01179 -0.32011,0.213842 -0.411296,0.222127 -2.446436,0.221758 -1.924005,-2.46e-4 -2.142073,-0.01763 -2.427215,-0.191367 z m 6.65431,0 c -0.615582,-0.375351 -0.665287,-0.595017 -0.665287,-2.93969 0,-1.828564 0.02266,-2.145431 0.173284,-2.421039 0.348176,-0.637178 0.455043,-0.661458 2.909225,-0.661458 2.526922,0 2.609346,0.02214 2.951902,0.796637 0.176461,0.398892 0.190799,0.617123 0.162097,2.467261 -0.03484,2.243781 -0.06794,2.374858 -0.697346,2.758617 -0.284363,0.173403 -0.503478,0.19067 -2.416653,0.19067 -1.914471,0 -2.132149,-0.01722 -2.417222,-0.190998 z m -0.0065,-6.582776 c -0.122058,-0.05883 -0.320217,-0.265019 -0.440358,-0.458198 -0.201505,-0.324007 -0.221104,-0.491579 -0.25282,-2.161599 -0.04016,-2.114319 0.04747,-2.673166 0.484881,-3.09223 l 0.29628,-0.28385 2.334269,0 2.334273,0 0.265137,0.244642 c 0.483603,0.446217 0.53367,0.711026 0.531341,2.810257 -0.0018,1.68981 -0.02577,1.98786 -0.188028,2.345234 -0.309256,0.681157 -0.458563,0.716929 -2.960867,0.709332 -1.364306,-0.0041 -2.265362,-0.04671 -2.404108,-0.113588 z m 6.510407,-0.07284 C 27.629517,16.574349 27.57091,16.278215 27.57091,14.12287 c 0,-1.777754 0.02018,-2.026596 0.193634,-2.384857 0.341056,-0.704522 0.4739,-0.738276 2.903971,-0.737862 3.172711,4.11e-4 3.091649,-0.08567 3.048029,3.241591 l -0.02954,2.253456 -0.365528,0.334805 -0.365527,0.334807 -2.287895,0 c -2.129196,0 -2.304913,-0.01337 -2.533315,-0.193053 z"
         id="path4604-5-7-0-3"
         inkscape:connector-curvature="0" />
      <path
         style="fill:#f44336;fill-opacity:1;fill-rule:evenodd"
         d="m 16.546841,16.98127 c -1.421364,-0.400344 -2.275158,-1.515484 -2.276012,-2.972709 -7.38e-4,-0.941371 0.411407,-1.818541 1.115444,-2.375047 0.61834,-0.488769 1.056158,-0.63464 1.901412,-0.633508 1.197424,0.0016 2.207579,0.655938 2.709402,1.755029 0.306959,0.67231 0.314383,1.856848 0.01569,2.507343 -0.613878,1.336983 -2.138089,2.092898 -3.465952,1.718892 z"
         id="path4602-9-4-4-5"
         inkscape:connector-curvature="0" />
    </g>
  </g>
</svg>
